# xmcd CD database file generated by OrangeCD 6.4
#
# Track frame offsets:
#	150
#	14452
#	26841
#	41330
#
# Disc length: 699 seconds
#
# Revision: 0
# Processed by: cddbd v1.5.2PL0 Copyright (c) Steve Scherf et al.
# Submitted via: OrangeCD 6.4
#
DISCID=2802b904
DTITLE=Blue Pontiac - The Devil at the Bottom of the Sea
DYEAR=2010
DGENRE=
TTITLE0=Blacktide Blues
TTITLE1=Shut In
TTITLE2=Kayla Kraze
TTITLE3=Scream
EXTD=
EXTT0=
EXTT1=
EXTT2=
EXTT3=
PLAYORDER=
